<?xml version="1.0" standalone="no"?>
<!DOCTYPE svg PUBLIC "-//W3C//DTD SVG 20010904//EN"
 "http://www.w3.org/TR/2001/REC-SVG-20010904/DTD/svg10.dtd">
<svg version="1.0" xmlns="http://www.w3.org/2000/svg"
 width="31.000000pt" height="70.000000pt" viewBox="0 0 31.000000 70.000000"
 preserveAspectRatio="xMidYMid meet">

<g transform="translate(0.000000,70.000000) scale(0.100000,-0.100000)"
fill="#000000" stroke="none">
<path d="M119 642 c-19 -25 -40 -53 -47 -63 -30 -40 -63 -159 -64 -232 -1 -83
18 -131 83 -208 25 -30 41 -62 45 -88 9 -55 34 -56 34 -2 0 30 8 49 35 82 51
61 82 118 89 167 14 97 -28 232 -108 344 l-33 46 -34 -46z"/>
</g>
</svg>
