<?xml version="1.0" standalone="no"?>
<!DOCTYPE svg PUBLIC "-//W3C//DTD SVG 20010904//EN"
 "http://www.w3.org/TR/2001/REC-SVG-20010904/DTD/svg10.dtd">
<svg version="1.0" xmlns="http://www.w3.org/2000/svg"
 width="60.000000pt" height="50.000000pt" viewBox="0 0 60.000000 50.000000"
 preserveAspectRatio="xMidYMid meet">

<g transform="translate(0.000000,50.000000) scale(0.100000,-0.100000)"
fill="#000000" stroke="none">
<path d="M0 478 c0 -22 3 -23 70 -20 61 3 70 6 70 23 0 17 -8 19 -70 19 -66 0
-70 -1 -70 -22z"/>
<path d="M0 400 c0 -18 7 -20 70 -20 63 0 70 2 70 20 0 18 -7 20 -70 20 -63 0
-70 -2 -70 -20z"/>
<path d="M0 323 c0 -23 1 -23 149 -23 82 0 161 -4 175 -10 20 -7 26 -6 26 4 0
33 -32 41 -192 46 l-158 5 0 -22z"/>
<path d="M0 250 c0 -19 7 -20 144 -20 79 0 158 -3 175 -6 24 -5 31 -3 31 9 0
26 -59 37 -206 37 -137 0 -144 -1 -144 -20z"/>
<path d="M168 193 c-160 -3 -168 -4 -168 -23 0 -19 7 -20 149 -20 154 0 201 8
201 35 0 8 -3 14 -7 13 -5 -1 -83 -4 -175 -5z"/>
<path d="M325 127 c-13 -8 -73 -12 -172 -12 -152 0 -153 0 -153 -22 0 -23 2
-23 128 -23 131 0 191 10 212 35 18 22 8 36 -15 22z"/>
<path d="M362 63 c7 -9 45 -13 124 -13 85 0 114 3 114 13 0 9 -32 12 -124 12
-98 0 -122 -3 -114 -12z"/>
<path d="M369 21 c20 -18 36 -21 127 -21 86 0 104 3 104 15 0 12 -19 15 -109
15 -60 0 -118 3 -128 6 -14 4 -13 1 6 -15z"/>
</g>
</svg>
